<svg width="62" height="24" viewBox="0 0 62 24" fill="none" xmlns="http://www.w3.org/2000/svg">
<path fill-rule="evenodd" clip-rule="evenodd" d="M7.69053 2.39188C7.33546 2.60524 7.04491 2.79802 7.04491 2.82022C7.04491 2.84237 7.28034 3.20855 7.56803 3.63388C7.85576 4.05921 8.10603 4.42429 8.1242 4.44515C8.14237 4.46601 8.38273 3.99552 8.65835 3.39966C8.93402 2.80375 9.15386 2.31096 9.14696 2.30451C9.14006 2.29811 9.02253 2.22607 8.8858 2.14453C8.73836 2.05659 8.576 1.99782 8.48669 2.00006C8.38719 2.00259 8.11734 2.13536 7.69053 2.39188ZM9.28167 2.72067C9.21955 2.86051 8.98666 3.36939 8.76419 3.85153C8.54167 4.33363 8.35963 4.7454 8.35963 4.76655C8.35963 4.78775 8.92266 5.63936 9.61078 6.65903C10.2989 7.67869 10.888 8.5517 10.9199 8.59906C10.9705 8.67416 11.1128 8.43378 12.04 6.70553C12.6241 5.61678 13.1019 4.70797 13.1018 4.68596C13.1017 4.6639 12.2872 4.16252 11.2917 3.57172C10.2963 2.98091 9.46221 2.49051 9.43822 2.48197C9.41423 2.47337 9.34379 2.58079 9.28167 2.72067ZM3.38246 4.95226L0.0252145 6.94877L0.0126307 7.42056L0 7.89234L2.09703 10.4879L4.19407 13.0834L4.4356 12.5646C4.56839 12.2793 5.42629 10.4184 6.34195 8.42943C7.25766 6.44037 8.01794 4.813 8.03151 4.813C8.04508 4.813 8.08936 4.86867 8.12998 4.9367L8.20384 5.06045L8.26215 4.91722C8.31192 4.79505 8.3084 4.75523 8.23797 4.64595L8.15543 4.51786L8.08758 4.64953L8.01973 4.7812L7.93305 4.66581C7.88539 4.60236 7.60794 4.1914 7.31654 3.75261C7.02509 3.31382 6.77609 2.95499 6.76318 2.95528C6.75027 2.95556 5.22894 3.85421 3.38246 4.95226ZM12.4447 6.53882C11.9411 7.48634 11.448 8.41148 11.3489 8.59467L11.1689 8.92776L11.0634 8.82698L10.9579 8.72624L10.9032 8.84832C10.8585 8.94795 10.8629 8.99269 10.927 9.09213L11.0055 9.21392L11.0721 9.0845C11.1276 8.97684 11.1487 8.9661 11.1975 9.02047C11.2298 9.05647 12.181 10.4608 13.3113 12.1413C14.4416 13.8219 15.3916 15.224 15.4223 15.2573C15.4663 15.3049 15.6406 15.0152 16.2391 13.8993L17 12.4808L16.9879 9.71368L16.9758 6.94653L15.1764 5.87979C14.1868 5.29304 13.3733 4.81367 13.3687 4.81448C13.364 4.81534 12.9483 5.59129 12.4447 6.53882ZM6.2957 9.20375C5.25434 11.4627 4.38926 13.311 4.37324 13.311C4.35723 13.311 4.3153 13.264 4.28004 13.2067L4.21595 13.1023L4.14983 13.2305C4.11349 13.301 4.07555 13.3588 4.06555 13.3588C4.0555 13.3588 3.14632 12.2416 2.04515 10.8762C0.943972 9.51078 0.0337133 8.39363 0.0223503 8.39363C0.0110343 8.39363 0.00248859 10.3433 0.00342768 12.7262L0.00516499 17.0587L0.899882 17.5839C1.39201 17.8727 1.81427 18.1091 1.83827 18.1091C1.86226 18.1091 2.36505 17.0606 2.95555 15.7791C3.54605 14.4976 4.04264 13.4355 4.05907 13.4188C4.07551 13.4021 4.12335 13.4383 4.16538 13.4994L4.24187 13.6104L4.30741 13.4831C4.34347 13.4132 4.38897 13.366 4.40851 13.3783C4.42809 13.3906 4.98168 14.0672 5.63871 14.882C6.54216 16.0024 6.84591 16.3492 6.88498 16.3052C6.91339 16.2733 7.80618 14.6206 8.86895 12.6325C9.93171 10.6445 10.8013 8.99646 10.8013 8.9703C10.8013 8.94413 10.2392 8.08932 9.55223 7.07075C8.86524 6.05218 8.27746 5.19131 8.24609 5.15765C8.20074 5.10905 7.7997 5.94104 6.2957 9.20375ZM10.8114 9.59509C10.7076 9.78768 10.1745 10.7831 9.62655 11.8072C9.07869 12.8312 8.28004 14.3243 7.85182 15.1252C7.42359 15.9261 7.06505 16.5921 7.05505 16.6052C7.045 16.6183 6.99945 16.5822 6.95377 16.5249L6.87066 16.4207L6.78173 16.5346L6.69275 16.6484L5.49541 15.1498C4.83687 14.3256 4.28689 13.6499 4.27323 13.6483C4.25957 13.6466 3.76763 14.69 3.18004 15.9671C2.5924 17.2441 2.1176 18.2949 2.12492 18.3021C2.1322 18.3092 2.75857 18.6823 3.51684 19.1311C4.27516 19.5799 4.90904 19.9464 4.92548 19.9456C4.94196 19.9447 5.34459 19.2143 5.82019 18.3224C6.29579 17.4305 6.69998 16.7007 6.71834 16.7007C6.73665 16.7007 6.77797 16.7329 6.81013 16.7723C6.8423 16.8117 6.88568 16.8439 6.90662 16.8439C6.92757 16.8439 6.95846 16.7997 6.97527 16.7458C6.99213 16.6918 7.02448 16.6542 7.04711 16.6622C7.06979 16.6703 7.85111 17.6221 8.78344 18.7774C9.71577 19.9328 10.5036 20.8711 10.5343 20.8627C10.5649 20.8542 11.2245 20.4711 12 20.0114L13.4101 19.1756L14.3422 17.4358C14.8549 16.4788 15.2913 15.6853 15.3119 15.6723C15.3326 15.6594 15.3807 15.6942 15.4189 15.7497L15.4885 15.8507L15.5688 15.7261L15.6491 15.6015L16.1395 16.3301C16.4092 16.7308 16.6471 17.0892 16.6683 17.1265C16.7005 17.1833 16.7302 17.1843 16.8529 17.1326L16.9992 17.071L16.9991 15.0836C16.9989 13.149 16.9967 13.1 16.9144 13.2394C16.868 13.3182 16.5694 13.8714 16.2509 14.4688C15.9324 15.0661 15.6538 15.5549 15.6317 15.5549C15.6095 15.5549 15.5656 15.5129 15.5341 15.4616C15.4787 15.3714 15.4744 15.3723 15.3984 15.49L15.32 15.6116L15.1095 15.3088C14.9938 15.1421 14.0383 13.7276 12.9863 12.1652C11.9343 10.6029 11.057 9.30668 11.0368 9.28477C11.0165 9.26291 10.9151 9.40255 10.8114 9.59509ZM14.6889 17.381C14.2629 18.1753 13.9207 18.8331 13.9284 18.8427C13.9361 18.8522 14.4242 18.5749 15.013 18.2264C15.6019 17.8779 16.1734 17.5404 16.2831 17.4764C16.4119 17.4013 16.4701 17.3398 16.4474 17.3028C16.4281 17.2712 16.2152 16.951 15.9743 16.5911C15.7334 16.2312 15.5199 15.9368 15.4999 15.9368C15.4799 15.9368 15.115 16.5867 14.6889 17.381ZM6.14277 18.312C5.73882 19.0669 5.3552 19.7812 5.29026 19.8994L5.17217 20.1142L6.76257 21.0571C7.90802 21.7362 8.39405 22 8.49969 22C8.59966 22 8.89923 21.8518 9.44029 21.5345C9.87692 21.2785 10.2297 21.0538 10.2242 21.035C10.2188 21.0164 9.47748 20.0872 8.57689 18.9702C7.6763 17.8533 6.92545 16.9394 6.90832 16.9394C6.89122 16.9394 6.54672 17.5571 6.14277 18.312Z" fill="#073B4C"/>
<path d="M34.952 8.18C34.952 8.24667 34.9254 8.30667 34.872 8.36C34.832 8.4 34.7787 8.42 34.712 8.42H28.172C28.1054 8.42 28.072 8.45333 28.072 8.52V11.62C28.072 11.6867 28.1054 11.72 28.172 11.72H32.472C32.5387 11.72 32.592 11.7467 32.632 11.8C32.6854 11.84 32.712 11.8933 32.712 11.96V13.9C32.712 13.9667 32.6854 14.0267 32.632 14.08C32.592 14.12 32.5387 14.14 32.472 14.14H28.172C28.1054 14.14 28.072 14.1733 28.072 14.24V19.76C28.072 19.8267 28.0454 19.8867 27.992 19.94C27.952 19.98 27.8987 20 27.832 20H25.492C25.4254 20 25.3654 19.98 25.312 19.94C25.272 19.8867 25.252 19.8267 25.252 19.76V6.24C25.252 6.17333 25.272 6.12 25.312 6.08C25.3654 6.02667 25.4254 6 25.492 6H34.712C34.7787 6 34.832 6.02667 34.872 6.08C34.9254 6.12 34.952 6.17333 34.952 6.24V8.18ZM47.9034 6C47.9701 6 48.0234 6.02667 48.0634 6.08C48.1168 6.12 48.1434 6.17333 48.1434 6.24V8.2C48.1434 8.26667 48.1168 8.32667 48.0634 8.38C48.0234 8.42 47.9701 8.44 47.9034 8.44H44.3234C44.2568 8.44 44.2234 8.47333 44.2234 8.54V19.76C44.2234 19.8267 44.1968 19.8867 44.1434 19.94C44.1034 19.98 44.0501 20 43.9834 20H41.6434C41.5768 20 41.5168 19.98 41.4634 19.94C41.4234 19.8867 41.4034 19.8267 41.4034 19.76V8.54C41.4034 8.47333 41.3701 8.44 41.3034 8.44H37.8234C37.7568 8.44 37.6968 8.42 37.6434 8.38C37.6034 8.32667 37.5834 8.26667 37.5834 8.2V6.24C37.5834 6.17333 37.6034 6.12 37.6434 6.08C37.6968 6.02667 37.7568 6 37.8234 6H47.9034ZM51.9827 20C51.916 20 51.856 19.98 51.8027 19.94C51.7627 19.8867 51.7427 19.8267 51.7427 19.76V6.24C51.7427 6.17333 51.7627 6.12 51.8027 6.08C51.856 6.02667 51.916 6 51.9827 6H54.3227C54.3893 6 54.4427 6.02667 54.4827 6.08C54.536 6.12 54.5627 6.17333 54.5627 6.24V17.48C54.5627 17.5467 54.596 17.58 54.6627 17.58H61.2027C61.2693 17.58 61.3227 17.6067 61.3627 17.66C61.416 17.7 61.4427 17.7533 61.4427 17.82V19.76C61.4427 19.8267 61.416 19.8867 61.3627 19.94C61.3227 19.98 61.2693 20 61.2027 20H51.9827Z" fill="#073B4C"/>
</svg>
