<svg width="119" height="119" viewBox="0 0 119 119" fill="none" xmlns="http://www.w3.org/2000/svg">
<path d="M104.1 34.2125C104.018 33.3792 103.725 32.5805 103.25 31.8911C102.775 31.2017 102.132 30.6441 101.383 30.2706L61.7164 10.4373C61.0275 10.0926 60.2678 9.91312 59.4975 9.91312C58.7272 9.91312 57.9675 10.0926 57.2787 10.4373L17.612 30.2706C16.8646 30.6462 16.2242 31.2045 15.7501 31.8936C15.276 32.5826 14.9835 33.3803 14.8998 34.2125C14.8453 34.743 10.1348 87.5989 57.4869 108.657C58.1196 108.942 58.8058 109.09 59.5 109.09C60.1942 109.09 60.8804 108.942 61.5131 108.657C108.865 87.5989 104.155 34.748 104.1 34.2125V34.2125ZM59.5 98.6559C25.937 82.4323 24.3504 47.8082 24.6231 37.8569L59.5 20.4184L94.3521 37.847C94.5356 47.7091 92.7258 82.5612 59.5 98.6559Z" fill="black"/>
<path d="M54.5417 62.4056L43.1722 51.0361L36.1611 58.0472L54.5417 76.4277L82.8389 48.1305L75.8278 41.1194L54.5417 62.4056Z" fill="black"/>
</svg>
