<svg width="163" height="163" viewBox="0 0 163 163" fill="none" xmlns="http://www.w3.org/2000/svg">
<path d="M38.2541 132.438C35.777 132.442 33.3103 132.116 30.9191 131.47C23.7415 129.423 17.6521 124.644 13.9572 118.159C10.2624 111.674 9.25647 103.999 11.1553 96.7813L23.0238 51.7525C23.9481 48.1083 25.5912 44.6855 27.8568 41.6852C30.1223 38.6849 32.9646 36.1675 36.2166 34.281C39.383 32.4469 42.8818 31.2595 46.5105 30.7873C50.1391 30.3152 53.8253 30.5677 57.3556 31.5303C61.1084 32.5724 64.6038 34.3829 67.6201 36.8468C70.6365 39.3107 73.108 42.3745 74.8781 45.8438H88.1219C89.8843 42.3689 92.3534 39.3007 95.3709 36.8358C98.3884 34.3709 101.888 32.5638 105.644 31.5303C109.175 30.5677 112.861 30.3152 116.49 30.7873C120.118 31.2595 123.617 32.4469 126.783 34.281C130.02 36.1627 132.851 38.6662 135.116 41.6474C137.38 44.6285 139.032 48.0282 139.976 51.6506L151.845 96.7813C153.772 104.02 152.774 111.727 149.066 118.237C145.359 124.746 139.24 129.536 132.03 131.572C128.5 132.534 124.813 132.787 121.185 132.315C117.556 131.842 114.057 130.655 110.891 128.821C107.649 126.946 104.813 124.444 102.548 121.462C100.283 118.48 98.6347 115.077 97.6981 111.451L96.7812 106.969H66.2188L65.0472 111.349C64.1107 114.975 62.4618 118.378 60.1968 121.36C57.9318 124.343 55.0959 126.844 51.8544 128.719C47.7156 131.106 43.0316 132.387 38.2541 132.438V132.438ZM50.0716 40.75C46.9977 40.7605 43.979 41.5678 41.3103 43.0931C37.1276 45.5472 34.0873 49.5582 32.8547 54.2485L20.9863 99.2772C19.7443 103.916 20.3719 108.857 22.734 113.039C25.0961 117.22 29.0044 120.308 33.6188 121.639C35.8473 122.247 38.1743 122.407 40.465 122.109C42.7558 121.812 44.9648 121.063 46.9644 119.907C49.0462 118.705 50.8667 117.099 52.3188 115.183C53.7709 113.267 54.8253 111.081 55.42 108.752L58.5781 96.7813H104.422L107.529 108.752C108.134 111.076 109.193 113.258 110.644 115.173C112.095 117.087 113.91 118.696 115.985 119.907C117.994 121.062 120.212 121.81 122.51 122.107C124.809 122.404 127.144 122.245 129.381 121.639C134.001 120.32 137.914 117.232 140.27 113.045C142.626 108.858 143.234 103.91 141.963 99.2772L130.094 54.2485C129.503 51.9247 128.455 49.7417 127.013 47.8266C125.57 45.9115 123.76 44.3024 121.69 43.0931C119.68 41.9377 117.463 41.19 115.164 40.8928C112.865 40.5956 110.53 40.7548 108.293 41.3613C105.526 42.1499 102.988 43.5873 100.888 45.5541C98.7886 47.5208 97.1885 49.9601 96.2209 52.6694L94.9984 56.0313H68.0016L66.7791 52.6694C65.8028 49.9565 64.1938 47.5155 62.0854 45.5488C59.977 43.5822 57.4301 42.1466 54.6559 41.3613C53.1611 40.9582 51.6198 40.7527 50.0716 40.75V40.75Z" fill="black"/>
<path d="M50.9375 81.5C48.9226 81.5 46.953 80.9025 45.2776 79.7831C43.6023 78.6637 42.2965 77.0726 41.5255 75.2111C40.7544 73.3496 40.5527 71.3012 40.9458 69.325C41.3388 67.3488 42.3091 65.5336 43.7339 64.1089C45.1586 62.6841 46.9738 61.7138 48.95 61.3208C50.9262 60.9277 52.9746 61.1294 54.8361 61.9005C56.6976 62.6715 58.2887 63.9773 59.4081 65.6526C60.5275 67.328 61.125 69.2976 61.125 71.3125C61.125 74.0144 60.0517 76.6056 58.1412 78.5162C56.2306 80.4267 53.6394 81.5 50.9375 81.5Z" fill="black"/>
<path d="M112.062 66.2188C114.876 66.2188 117.156 63.9382 117.156 61.125C117.156 58.3118 114.876 56.0312 112.062 56.0312C109.249 56.0312 106.969 58.3118 106.969 61.125C106.969 63.9382 109.249 66.2188 112.062 66.2188Z" fill="black"/>
<path d="M112.062 86.5938C114.876 86.5938 117.156 84.3132 117.156 81.5C117.156 78.6868 114.876 76.4062 112.062 76.4062C109.249 76.4062 106.969 78.6868 106.969 81.5C106.969 84.3132 109.249 86.5938 112.062 86.5938Z" fill="black"/>
<path d="M101.875 76.4062C104.688 76.4062 106.969 74.1257 106.969 71.3125C106.969 68.4993 104.688 66.2188 101.875 66.2188C99.0618 66.2188 96.7812 68.4993 96.7812 71.3125C96.7812 74.1257 99.0618 76.4062 101.875 76.4062Z" fill="black"/>
<path d="M122.25 76.4062C125.063 76.4062 127.344 74.1257 127.344 71.3125C127.344 68.4993 125.063 66.2188 122.25 66.2188C119.437 66.2188 117.156 68.4993 117.156 71.3125C117.156 74.1257 119.437 76.4062 122.25 76.4062Z" fill="black"/>
</svg>
