<svg width="50" height="50" viewBox="0 0 50 50" fill="none" xmlns="http://www.w3.org/2000/svg">
<path d="M13.9583 25C13.9661 27.3089 14.2553 29.6083 14.8194 31.8472H23.8194V18.6806H14.6944C14.2143 20.753 13.9674 22.8727 13.9583 25V25Z" fill="black"/>
<path d="M26.1805 18.6806V31.8472H35.1805C35.7681 29.6112 36.0806 27.3118 36.1111 25C36.1066 22.8732 35.8643 20.7536 35.3889 18.6806H26.1805Z" fill="black"/>
<path d="M25 2.77777C20.6049 2.77777 16.3084 4.08108 12.654 6.52289C8.99957 8.9647 6.15129 12.4353 4.46935 16.4959C2.7874 20.5565 2.34733 25.0246 3.20477 29.3353C4.06222 33.646 6.17869 37.6056 9.28652 40.7135C12.3944 43.8213 16.354 45.9378 20.6647 46.7952C24.9754 47.6527 29.4435 47.2126 33.5041 45.5306C37.5647 43.8487 41.0353 41.0004 43.4771 37.346C45.9189 33.6916 47.2222 29.3951 47.2222 25C47.2222 19.1063 44.881 13.454 40.7135 9.28651C36.546 5.11903 30.8937 2.77777 25 2.77777V2.77777ZM41.9722 34.3194H36.9444C35.9938 37.2955 34.5883 40.1066 32.7778 42.6528C31.4417 43.235 30.0439 43.6637 28.6111 43.9305C31.1771 41.1424 33.1519 37.8635 34.4167 34.2917H26.1944V44.2222H23.8472V34.3194H15.5833C16.8464 37.8963 18.8214 41.18 21.3889 43.9722C19.9856 43.7083 18.6161 43.289 17.3056 42.7222C15.4886 40.1547 14.0829 37.3198 13.1389 34.3194H8.02778C7.58409 33.51 7.19885 32.6699 6.875 31.8055H12.4306C11.91 29.574 11.6398 27.2914 11.625 25C11.6258 22.876 11.8492 20.7579 12.2917 18.6805H6.61111C6.90319 17.8187 7.25593 16.9787 7.66667 16.1667H12.9583C13.9512 12.8598 15.4911 9.74257 17.5139 6.94444C18.7966 6.41293 20.1331 6.02176 21.5 5.77777C18.737 8.74312 16.6518 12.2737 15.3889 16.125H23.8472V5.55555H26.1944V16.1667H34.6528C33.3921 12.3216 31.3118 8.79595 28.5556 5.83333C29.9203 6.05971 31.2566 6.43222 32.5417 6.94444C34.5527 9.72235 36.0876 12.8155 37.0833 16.0972H42.3194C42.7301 16.9092 43.0829 17.7493 43.375 18.6111H37.7361C38.1881 20.7107 38.4162 22.8523 38.4167 25C38.4095 27.3048 38.144 29.6016 37.625 31.8472H43.1806C42.8369 32.6989 42.4331 33.5251 41.9722 34.3194Z" fill="black"/>
</svg>
