<svg width="188" height="188" viewBox="0 0 188 188" fill="none" xmlns="http://www.w3.org/2000/svg">
<path d="M76.3938 127.84C69.9172 139.092 74.2788 148.332 83.2746 153.521C92.261 158.719 102.46 157.892 108.955 146.64C115.432 135.407 156.397 35.109 152.835 33.0504C149.272 30.9918 82.8798 116.598 76.3938 127.84ZM94 56.4C98.1172 56.4 102.122 56.7478 106.041 57.4246C110.159 52.264 114.765 46.577 119.248 41.1814C111.043 38.8064 102.543 37.6007 94 37.6C41.2942 37.6 0 82.0526 0 138.8C0 142.288 0.1504 145.775 0.4606 149.169C0.9212 154.348 5.5366 158.146 10.6502 157.704C15.8296 157.224 19.646 152.675 19.1854 147.495C18.9287 144.604 18.8001 141.703 18.8 138.8C18.8 92.59 51.8316 56.4 94 56.4ZM161.859 68.15C159.236 75.2 156.463 82.3816 154.019 88.5856C163.56 102.404 169.2 119.737 169.2 138.8C169.2 141.771 169.059 144.769 168.796 147.665C168.675 150.09 169.496 152.468 171.088 154.302C172.68 156.136 174.919 157.283 177.337 157.504C179.756 157.725 182.166 157.002 184.064 155.487C185.961 153.973 187.2 151.783 187.521 149.375C187.831 145.897 188 142.344 188 138.8C188 111.033 178.102 86.2544 161.859 68.15Z" fill="black"/>
</svg>
